# xmcd
#
# Track frame offsets: 
#        150
#        26550
#        49325
#        67300
#        81900
#        101875
#        118200
#        139275
#        158137
#        179550
#        195450
#        214900
#
# Disc length: 3157 seconds
#
# Revision: 0
# Processed by: cddbd v1.5.2PL0 Copyright (c) Steve Scherf et al.
# Submitted via: ExactAudioCopy v0.95a5
#
DISCID=bd0c530c
DTITLE=TEO BOON CHYE - 迷人的萨克斯风(第二辑)
DYEAR=1993
DGENRE=Blues
TTITLE0=01.UNCHAINED MELODY FROMGHOST人鬼情未了
TTITLE1=02.LONELY NIGHT 夜空
TTITLE2=03.LOVE POEMS 秋思篇篇
TTITLE3=04.VENUS 维纳斯
TTITLE4=05.THOUSAND WORDS 千言万语
TTITLE5=06.SUMMER KISSESWINTER TEARS 多少柔情多少泪
TTITLE6=07.STEADILY WE PART 潇洒的走
TTITLE7=08.APPLAUSE 喝彩
TTITLE8=09.RAIN IN THE SUN 晴时多云偶阵雨
TTITLE9=10.UNDER THE STREET LAMP 街灯下
TTITLE10=11.CRYING IN THE RAIN 阵雨中
TTITLE11=12.THE UNFORGETTABLE 意难忘
EXTD=
EXTT0=
EXTT1=
EXTT2=
EXTT3=
EXTT4=
EXTT5=
EXTT6=
EXTT7=
EXTT8=
EXTT9=
EXTT10=
EXTT11=
PLAYORDER=
